<?xml version="1.0" encoding="iso-8859-1"?>
<!-- Generator: Adobe Illustrator 21.0.0, SVG Export Plug-In . SVG Version: 6.00 Build 0)  -->
<svg xmlns="http://www.w3.org/2000/svg" xmlns:xlink="http://www.w3.org/1999/xlink" version="1.1" id="Capa_1" x="0px" y="0px" viewBox="0 0 512 512" style="enable-background:new 0 0 512 512;" xml:space="preserve" width="512" height="512">
<g>
	<polygon style="fill:#FAC004;" points="497,182.363 497,108.726 441.668,108.726 441.668,35.088 256,35.088 70.332,35.088    70.332,108.726 15,108.726 15,182.363 70.332,182.363 70.332,256 15,256 15,329.637 70.332,329.637 70.332,403.274 15,403.274    15,476.912 163.781,476.912 348.219,476.912 497,476.912 497,403.274 441.668,403.274 441.668,329.637 497,329.637 497,256    441.668,256 441.668,182.363  "/>
	<path style="fill:#F49F11;" d="M497,197.363c8.284,0,15-6.716,15-15v-73.637c0-8.284-6.716-15-15-15h-40.332V35.088   c0-8.284-6.716-15-15-15H256H70.332c-8.284,0-15,6.716-15,15v58.637H15c-8.284,0-15,6.716-15,15v73.637c0,8.284,6.716,15,15,15   h40.332V241H15c-8.284,0-15,6.716-15,15v73.637c0,8.284,6.716,15,15,15h40.332v43.637H15c-8.284,0-15,6.716-15,15v73.637   c0,8.284,6.716,15,15,15h148.781h184.438H497c8.284,0,15-6.716,15-15v-73.637c0-8.284-6.716-15-15-15h-40.332v-43.637H497   c8.284,0,15-6.716,15-15V256c0-8.284-6.716-15-15-15h-40.332v-43.637H497z M482,167.363h-40.332h-78.449v-43.637h78.449H482   V167.363z M256,167.363h-77.219v-43.637H256h77.219v43.637H256z M426.668,93.726h-78.449H271V50.088h155.668V93.726z    M85.332,50.088H241v43.637h-77.219H85.332V50.088z M30,123.726h40.332h78.449v43.637H70.332H30V123.726z M85.332,197.363h78.449   H241V241h-77.219H85.332V197.363z M333.219,314.637H256h-77.219V271H256h77.219V314.637z M30,271h40.332h78.449v43.637H70.332H30   V271z M85.332,344.637h78.449H241v43.637h-77.219H85.332V344.637z M30,418.274h40.332h78.449v43.637H30V418.274z M178.781,418.274   H256h77.219v43.637H178.781V418.274z M482,461.912H363.219v-43.637h78.449H482V461.912z M426.668,388.274h-78.449H271v-43.637   h77.219h78.449V388.274z M482,314.637h-40.332h-78.449V271h78.449H482V314.637z M426.668,241h-78.449H271v-43.637h77.219h78.449   V241z"/>
	<polygon style="fill:#F49F11;" points="497,182.363 497,108.726 441.668,108.726 441.668,35.088 256,35.088 256,476.912    348.219,476.912 497,476.912 497,403.274 441.668,403.274 441.668,329.637 497,329.637 497,256 441.668,256 441.668,182.363  "/>
	<path style="fill:#EE7625;" d="M497,197.363c8.284,0,15-6.716,15-15v-73.637c0-8.284-6.716-15-15-15h-40.332V35.088   c0-8.284-6.716-15-15-15H256v103.637h77.219v43.637H256V271h77.219v43.637H256v103.637h77.219v43.637H256v30h92.219H497   c8.284,0,15-6.716,15-15v-73.637c0-8.284-6.716-15-15-15h-40.332v-43.637H497c8.284,0,15-6.716,15-15V256c0-8.284-6.716-15-15-15   h-40.332v-43.637H497z M271,93.726V50.088h155.668v43.637h-78.449H271z M271,241v-43.637h77.219h78.449V241h-78.449H271z    M271,388.274v-43.637h77.219h78.449v43.637h-78.449H271z M482,418.274v43.637H363.219v-43.637h78.449H482z M482,271v43.637   h-40.332h-78.449V271h78.449H482z M441.668,167.363h-78.449v-43.637h78.449H482v43.637H441.668z"/>
</g>















</svg>
